<svg id="Capa_1" enable-background="new 0 0 512 512" height="512" viewBox="0 0 512 512" width="512" xmlns="http://www.w3.org/2000/svg"><g id="_x31_-0"><path d="m256 511.292c-143.551 0-256-112.449-256-256 8.714-339.486 503.333-339.406 512 .004 0 143.547-112.449 255.996-256 255.996zm0-490c-131.215 0-234 102.785-234 234 7.965 310.312 460.078 310.238 468-.003 0-131.212-102.785-233.997-234-233.997z" fill="#3cc"/><path d="m266.943 171.117c-.375-3.698-2.583-6.854-5.7-8.548-.312-.169-.633-.324-.962-.463-.987-.418-2.048-.695-3.157-.808-.737-.076-1.512-.076-2.249 0-1.109.113-2.17.39-3.157.808-.329.139-.65.294-.962.463-3.117 1.693-5.324 4.85-5.7 8.548.425 17.22-13.256 31.683-30.582 31.65-6.075 0-11 4.925-11 11s4.925 11 11 11c11.379 0 21.915-3.649 30.525-9.821v123.397c.541 14.579 21.464 14.568 22 0v-166.102c.001-.379-.018-.755-.056-1.124z"/></g></svg>