<svg id="Capa_1" enable-background="new 0 0 512 512" height="512" viewBox="0 0 512 512" width="512" xmlns="http://www.w3.org/2000/svg"><g id="_x31_0-9"><path d="m256 511.292c-143.551 0-256-112.449-256-256 8.714-339.486 503.333-339.406 512 .004 0 143.547-112.449 255.996-256 255.996zm0-490c-131.215 0-234 102.785-234 234 7.965 310.312 460.078 310.238 468-.003 0-131.212-102.785-233.997-234-233.997z" fill="#3cc"/><path d="m193.712 161.241c-6.075 0-11 4.925-11 11 0 16.832-13.694 30.525-30.525 30.525-6.075 0-11 4.925-11 11s4.925 11 11 11c11.379 0 21.915-3.649 30.525-9.821v123.398c.541 14.579 21.464 14.568 22 0v-166.102c0-6.075-4.925-11-11-11z"/><path d="m318.288 349.343c-28.962 0-52.525-23.563-52.525-52.525v-83.051c2.649-69.604 102.427-69.551 105.051 0v83.051c-.001 28.962-23.564 52.525-52.526 52.525zm0-166.102c-16.832 0-30.525 13.694-30.525 30.525v83.051c1.54 40.451 59.526 40.42 61.051 0v-83.051c-.001-16.831-13.694-30.525-30.526-30.525z"/></g></svg>