<svg id="Capa_1" enable-background="new 0 0 512 512" height="512" viewBox="0 0 512 512" width="512" xmlns="http://www.w3.org/2000/svg"><g id="_x31_6-15_1_"><path d="m256 511.292c-143.551 0-256-112.449-256-256 8.714-339.486 503.333-339.406 512 .004 0 143.547-112.449 255.996-256 255.996zm0-490c-131.215 0-234 102.785-234 234 7.965 310.312 460.078 310.238 468-.003 0-131.212-102.785-233.997-234-233.997z" fill="#3cc"/><path d="m318.706 244.292c-11.553 0-22.24 3.758-30.922 10.104-.01-22.571.496-46.867 2.79-52.507 10.318-24.716 45.952-24.706 56.262 0 2.367 5.595 8.82 8.212 14.416 5.846 5.595-2.366 8.212-8.821 5.846-14.416-17.747-42.517-79.049-42.499-96.786 0-4.516 10.676-4.976 39.808-4.256 93.336.047 3.499.091 6.779.125 9.761 0 .038.006.074.007.112-.19 29.061 23.464 52.826 52.518 52.816 69.582-2.639 69.571-102.421 0-105.052zm0 83.051c-16.832 0-30.525-13.694-30.525-30.525 1.535-40.44 59.522-40.429 61.051 0-.001 16.831-13.694 30.525-30.526 30.525z"/><path d="m193.712 161.241c-6.075 0-11 4.925-11 11 0 16.832-13.694 30.525-30.525 30.525-6.075 0-11 4.925-11 11s4.925 11 11 11c11.379 0 21.915-3.649 30.525-9.821v123.398c.541 14.579 21.464 14.568 22 0v-166.102c0-6.075-4.925-11-11-11z"/></g></svg>