<svg id="Capa_1" enable-background="new 0 0 512 512" height="512" viewBox="0 0 512 512" width="512" xmlns="http://www.w3.org/2000/svg"><g id="_x31_7-16_1_"><path d="m256 511.292c-143.551 0-256-112.449-256-256 8.714-339.486 503.334-339.406 512 .004 0 143.547-112.448 255.996-256 255.996zm0-490c-131.215 0-234 102.785-234 234 7.965 310.312 460.078 310.238 468-.003 0-131.212-102.785-233.997-234-233.997z" fill="#3cc"/><path d="m318.297 349.346c-7.033.087-12.489-6.848-10.681-13.671l38.108-152.434h-68.962c-14.579-.541-14.568-21.464 0-22h83.051c3.388 0 6.586 1.561 8.67 4.23 2.085 2.67 2.823 6.151 2.002 9.438l-41.525 166.102c-1.25 4.998-5.735 8.334-10.663 8.335z"/><path d="m193.712 161.241c-6.075 0-11 4.925-11 11 0 16.832-13.694 30.525-30.525 30.525-6.075 0-11 4.925-11 11s4.925 11 11 11c11.379 0 21.915-3.649 30.525-9.821v123.397c.541 14.579 21.464 14.568 22 0v-166.101c0-6.075-4.925-11-11-11z"/></g></svg>