<svg id="Capa_1" enable-background="new 0 0 512 512" height="512" viewBox="0 0 512 512" width="512" xmlns="http://www.w3.org/2000/svg"><g id="_x31_8-17"><path d="m256 511.292c-143.552 0-256-112.449-256-256 8.713-339.486 503.334-339.406 512 .004 0 143.547-112.448 255.996-256 255.996zm0-490c-131.215 0-234 102.785-234 234 7.965 310.312 460.078 310.238 468-.003 0-131.212-102.785-233.997-234-233.997z" fill="#3cc"/><path d="m350.397 255.292c39.184-30.092 17.934-93.967-32.109-94.051-50.043.085-71.291 63.968-32.108 94.051-39.184 30.092-17.934 93.967 32.109 94.051 50.043-.085 71.291-63.969 32.108-94.051zm-62.634-41.525c0-16.832 13.693-30.525 30.525-30.525 40.441 1.534 40.43 59.523 0 61.051-16.832-.001-30.525-13.695-30.525-30.526zm30.525 113.576c-16.832 0-30.525-13.694-30.525-30.525 1.534-40.44 59.523-40.429 61.051 0 0 16.831-13.694 30.525-30.526 30.525z"/><path d="m193.712 161.241c-6.075 0-11 4.925-11 11 0 16.832-13.693 30.525-30.525 30.525-6.075 0-11 4.925-11 11s4.925 11 11 11c11.379 0 21.915-3.649 30.525-9.821v123.398c.541 14.579 21.464 14.568 22 0v-166.102c0-6.075-4.925-11-11-11z"/></g></svg>