<svg id="Capa_1" enable-background="new 0 0 512 512" height="512" viewBox="0 0 512 512" width="512" xmlns="http://www.w3.org/2000/svg"><g id="_x31_9-18"><path d="m256 511.292c-143.552 0-256-112.449-256-256 8.713-339.486 503.334-339.406 512 .004 0 143.547-112.448 255.996-256 255.996zm0-490c-131.215 0-234 102.785-234 234 7.965 310.312 460.078 310.238 468-.003 0-131.212-102.785-233.997-234-233.997z" fill="#3cc"/><path d="m370.943 227.294c-.049-3.61-.096-7.013-.131-10.125-.004-.332-.028-.66-.06-.984.283-71.222-101.983-73.572-104.99-2.418-.397 42.556 49.654 67.744 83.441 42.426.037 22.213-.431 46.862-2.784 52.503-10.318 24.716-45.952 24.706-56.263 0-2.366-5.596-8.823-8.213-14.416-5.846-5.595 2.366-8.213 8.821-5.846 14.416 17.748 42.518 79.049 42.499 96.787-.001 4.498-10.632 4.964-38.64 4.262-89.971zm-52.655 16.998c-16.832 0-30.525-13.694-30.525-30.525 1.534-40.441 59.523-40.429 61.051 0 0 16.831-13.694 30.525-30.526 30.525z"/><path d="m193.712 161.241c-6.075 0-11 4.925-11 11 0 16.832-13.693 30.525-30.525 30.525-6.075 0-11 4.925-11 11s4.925 11 11 11c11.379 0 21.915-3.649 30.525-9.821v123.398c.541 14.579 21.464 14.568 22 0v-166.102c0-6.075-4.925-11-11-11z"/></g></svg>