<svg id="Capa_1" enable-background="new 0 0 512 512" height="512" viewBox="0 0 512 512" width="512" xmlns="http://www.w3.org/2000/svg"><g id="_x32_-1"><path d="m256 511.292c-143.551 0-256-112.449-256-256 8.714-339.486 503.334-339.406 512 .004 0 143.547-112.448 255.996-256 255.996zm0-490c-131.215 0-234 102.785-234 234 7.965 310.312 460.078 310.238 468-.003 0-131.212-102.785-233.997-234-233.997z" fill="#3cc"/><path d="m297.525 349.343h-83.051c-6.075 0-11-4.925-11-11 0-36.644 24.399-54.943 45.925-71.088 19.921-14.941 37.125-27.844 37.125-53.488 0-16.832-13.694-30.525-30.525-30.525s-30.525 13.694-30.525 30.525c0 6.075-4.925 11-11 11s-11-4.925-11-11c0-28.963 23.563-52.525 52.525-52.525 28.963 0 52.525 23.563 52.525 52.525 0 36.644-24.398 54.943-45.925 71.088-16.852 12.639-31.76 23.819-35.953 42.488h70.878c14.581.541 14.57 21.464.001 22z"/></g></svg>