<svg id="Capa_1" enable-background="new 0 0 512 512" height="512" viewBox="0 0 512 512" width="512" xmlns="http://www.w3.org/2000/svg"><g id="_x32_0-19"><path d="m256 511.292c-143.551 0-256-112.449-256-256 8.714-339.486 503.333-339.406 512 .004 0 143.547-112.449 255.996-256 255.996zm0-490c-131.215 0-234 102.785-234 234 7.965 310.312 460.078 310.238 468-.003 0-131.212-102.785-233.997-234-233.997z" fill="#3cc"/><path d="m214.475 349.343h-83.051c-6.075 0-11-4.925-11-11 0-36.644 24.399-54.943 45.925-71.088 19.921-14.941 37.126-27.844 37.126-53.488 0-16.831-13.694-30.525-30.525-30.525s-30.525 13.694-30.525 30.525c0 6.075-4.925 11-11 11s-11-4.925-11-11c0-28.962 23.563-52.525 52.525-52.525s52.525 23.563 52.525 52.525c0 36.644-24.399 54.943-45.925 71.088-16.852 12.639-31.76 23.819-35.953 42.488h70.878c14.579.541 14.568 21.464 0 22z"/><path d="m339.051 349.343c-28.962 0-52.525-23.563-52.525-52.525v-83.051c2.649-69.604 102.427-69.551 105.051 0v83.051c-.001 28.962-23.564 52.525-52.526 52.525zm0-166.102c-16.832 0-30.525 13.694-30.525 30.525v83.051c1.54 40.451 59.525 40.42 61.051 0v-83.051c-.001-16.831-13.695-30.525-30.526-30.525z"/></g></svg>