<svg id="Capa_1" enable-background="new 0 0 512 512" height="512" viewBox="0 0 512 512" width="512" xmlns="http://www.w3.org/2000/svg"><g id="_x32_3-22"><path d="m256 511.292c-143.552 0-256-112.449-256-256 8.713-339.486 503.334-339.406 512 .004 0 143.547-112.448 255.996-256 255.996zm0-490c-131.215 0-234 102.785-234 234 7.965 310.312 460.078 310.238 468-.003 0-131.212-102.785-233.997-234-233.997z" fill="#3cc"/><path d="m214.475 349.343h-83.051c-6.075 0-11-4.925-11-11 0-36.644 24.398-54.943 45.926-71.088 19.921-14.941 37.125-27.844 37.125-53.488 0-16.832-13.693-30.525-30.525-30.525s-30.525 13.694-30.525 30.525c0 6.075-4.925 11-11 11s-11-4.925-11-11c0-28.962 23.562-52.525 52.525-52.525s52.525 23.563 52.525 52.525c0 36.644-24.398 54.943-45.926 71.088-16.852 12.639-31.76 23.819-35.953 42.488h70.879c14.579.541 14.568 21.464 0 22z"/><path d="m339.051 349.343c-28.963 0-52.525-23.563-52.525-52.525 0-6.075 4.925-11 11-11s11 4.925 11 11c0 16.832 13.693 30.525 30.525 30.525 40.447-1.544 40.427-59.519 0-61.051-14.581-.543-14.567-21.464.001-22 16.832 0 30.525-13.694 30.525-30.525 0-16.832-13.693-30.525-30.525-30.525s-30.525 13.694-30.525 30.525c0 6.075-4.925 11-11 11s-11-4.925-11-11c0-28.962 23.562-52.525 52.525-52.525 50.041.092 71.285 63.948 32.131 94.051 39.161 30.108 17.893 93.97-32.132 94.05z"/></g></svg>