<svg id="Capa_1" enable-background="new 0 0 512 512" height="512" viewBox="0 0 512 512" width="512" xmlns="http://www.w3.org/2000/svg"><g id="_x32_9-28"><path d="m256 511.292c-143.552 0-256-112.449-256-256 8.713-339.486 503.334-339.406 512 .004 0 143.547-112.448 255.996-256 255.996zm0-490c-131.215 0-234 102.785-234 234 7.965 310.312 460.078 310.238 468-.003 0-131.212-102.785-233.997-234-233.997z" fill="#3cc"/><path d="m214.475 349.343h-83.051c-6.075 0-11-4.925-11-11 0-36.644 24.398-54.943 45.926-71.088 19.921-14.941 37.125-27.844 37.125-53.488 0-16.832-13.693-30.525-30.525-30.525s-30.525 13.694-30.525 30.525c0 6.075-4.925 11-11 11s-11-4.925-11-11c0-28.962 23.562-52.525 52.525-52.525s52.525 23.563 52.525 52.525c0 36.644-24.398 54.943-45.926 71.088-16.852 12.639-31.76 23.819-35.953 42.488h70.879c14.579.541 14.568 21.464 0 22z"/><path d="m391.698 222.833c-.047-3.47-.09-6.717-.123-9.663-.001-.133-.018-.262-.024-.395-3.816-68.869-102.48-67.984-105.026.993-.399 42.559 49.664 67.747 83.449 42.42.002 22.679-.516 46.87-2.792 52.508-10.318 24.716-45.952 24.706-56.263 0-2.366-5.596-8.822-8.212-14.416-5.846-5.595 2.367-8.213 8.821-5.846 14.416 17.748 42.517 79.049 42.499 96.786 0 4.522-10.688 4.981-40.187 4.255-94.433zm-52.647 21.459c-16.832 0-30.525-13.694-30.525-30.525 1.535-40.44 59.522-40.429 61.051 0-.001 16.831-13.694 30.525-30.526 30.525z"/></g></svg>