<svg id="Capa_1" enable-background="new 0 0 512 512" height="512" viewBox="0 0 512 512" width="512" xmlns="http://www.w3.org/2000/svg"><g id="_x33_5-34"><path d="m256 511.292c-143.551 0-256-112.449-256-256 8.714-339.486 503.333-339.406 512 .004 0 143.547-112.449 255.996-256 255.996zm0-490c-131.215 0-234 102.785-234 234 7.965 310.312 460.078 310.238 468-.003 0-131.212-102.785-233.997-234-233.997z" fill="#3cc"/><path d="m172.949 349.343c-28.962 0-52.525-23.563-52.525-52.525 0-6.075 4.925-11 11-11s11 4.925 11 11c0 16.831 13.694 30.525 30.525 30.525 40.447-1.545 40.427-59.518 0-61.051-14.581-.543-14.567-21.464.001-22 16.831 0 30.525-13.694 30.525-30.525s-13.694-30.525-30.525-30.525-30.525 13.694-30.525 30.525c0 6.075-4.925 11-11 11s-11-4.925-11-11c0-28.962 23.563-52.525 52.525-52.525 50.04.092 71.286 63.948 32.131 94.051 39.162 30.108 17.893 93.97-32.132 94.05z"/><path d="m339.051 349.343h-41.525c-14.579-.541-14.568-21.464 0-22h41.525c40.451-1.54 40.42-59.526 0-61.051h-41.525c-6.075 0-11-4.925-11-11v-83.051c0-6.075 4.925-11 11-11h83.051c14.579.541 14.568 21.464 0 22h-72.051v61.051h30.525c69.604 2.649 69.551 102.427 0 105.051z"/></g></svg>