<svg id="Capa_1" enable-background="new 0 0 512 512" height="512" viewBox="0 0 512 512" width="512" xmlns="http://www.w3.org/2000/svg"><g id="_x33_6-35"><path d="m256 511.292c-143.551 0-256-112.449-256-256 8.714-339.486 503.333-339.406 512 .004 0 143.547-112.449 255.996-256 255.996zm0-490c-131.215 0-234 102.785-234 234 7.965 310.312 460.078 310.238 468-.003 0-131.212-102.785-233.997-234-233.997z" fill="#3cc"/><path d="m172.949 349.343c-28.962 0-52.525-23.563-52.525-52.525 0-6.075 4.925-11 11-11s11 4.925 11 11c0 16.831 13.694 30.525 30.525 30.525 40.447-1.545 40.427-59.518 0-61.051-14.581-.543-14.567-21.464.001-22 16.831 0 30.525-13.694 30.525-30.525s-13.694-30.525-30.525-30.525-30.525 13.694-30.525 30.525c0 6.075-4.925 11-11 11s-11-4.925-11-11c0-28.962 23.563-52.525 52.525-52.525 50.04.092 71.286 63.948 32.131 94.051 39.162 30.108 17.893 93.97-32.132 94.05z"/><path d="m339.469 244.292c-11.549 0-22.233 3.756-30.914 10.098.035-22.825.589-46.94 2.782-52.501 10.321-24.716 45.949-24.707 56.263 0 2.366 5.594 8.82 8.212 14.416 5.845 5.595-2.366 8.212-8.821 5.846-14.416-17.748-42.517-79.049-42.499-96.786 0-4.514 10.672-4.976 42.613-4.248 97.821.044 3.345.085 6.462.116 9.276.011.964.158 1.893.401 2.781 9.68 64.656 102.725 59.355 104.65-6.38-.001-28.961-23.564-52.524-52.526-52.524zm0 83.051c-16.832 0-30.525-13.694-30.525-30.525 1.535-40.44 59.522-40.429 61.051 0-.001 16.831-13.695 30.525-30.526 30.525z"/></g></svg>