<svg id="Capa_1" enable-background="new 0 0 512 512" height="512" viewBox="0 0 512 512" width="512" xmlns="http://www.w3.org/2000/svg"><g id="_x33_7-36"><path d="m256 511.292c-143.551 0-256-112.449-256-256 8.714-339.486 503.334-339.406 512 .004 0 143.547-112.448 255.996-256 255.996zm0-490c-131.215 0-234 102.785-234 234 7.965 310.312 460.078 310.238 468-.003 0-131.212-102.785-233.997-234-233.997z" fill="#3cc"/><path d="m172.949 349.343c-28.962 0-52.525-23.563-52.525-52.525 0-6.075 4.925-11 11-11s11 4.925 11 11c0 16.832 13.694 30.525 30.525 30.525 40.447-1.545 40.427-59.518 0-61.051-14.581-.543-14.567-21.464.001-22 16.831 0 30.525-13.694 30.525-30.525s-13.694-30.525-30.525-30.525-30.525 13.694-30.525 30.525c0 6.075-4.925 11-11 11s-11-4.925-11-11c0-28.962 23.563-52.525 52.525-52.525 50.04.092 71.286 63.948 32.131 94.051 39.162 30.108 17.893 93.97-32.132 94.05z"/><path d="m339.06 349.345c-.884 0-1.781-.107-2.677-.331-5.894-1.473-9.477-7.445-8.004-13.339l38.108-152.434h-68.962c-14.579-.541-14.568-21.464 0-22h83.051c3.388 0 6.586 1.561 8.67 4.23 2.085 2.67 2.823 6.151 2.002 9.438l-41.525 166.102c-1.25 4.998-5.736 8.334-10.663 8.334z"/></g></svg>