<svg id="Capa_1" enable-background="new 0 0 512 512" height="512" viewBox="0 0 512 512" width="512" xmlns="http://www.w3.org/2000/svg"><g id="_x33_8-37"><path d="m256 511.292c-143.552 0-256-112.449-256-256 8.713-339.486 503.334-339.406 512 .004 0 143.547-112.448 255.996-256 255.996zm0-490c-131.215 0-234 102.785-234 234 7.965 310.312 460.078 310.238 468-.003 0-131.212-102.785-233.997-234-233.997z" fill="#3cc"/><path d="m172.949 349.343c-28.963 0-52.525-23.563-52.525-52.525 0-6.075 4.925-11 11-11s11 4.925 11 11c0 16.832 13.693 30.525 30.525 30.525 40.447-1.544 40.427-59.519 0-61.051-14.581-.543-14.567-21.464.001-22 16.832 0 30.525-13.694 30.525-30.525 0-16.832-13.693-30.525-30.525-30.525s-30.525 13.694-30.525 30.525c0 6.075-4.925 11-11 11s-11-4.925-11-11c0-28.962 23.562-52.525 52.525-52.525 50.041.092 71.285 63.948 32.131 94.051 39.161 30.108 17.894 93.97-32.132 94.05z"/><path d="m371.159 255.292c39.184-30.092 17.934-93.967-32.109-94.051-50.043.085-71.291 63.968-32.108 94.051-39.184 30.092-17.934 93.967 32.109 94.051 50.044-.085 71.292-63.968 32.108-94.051zm-62.634-41.525c0-16.832 13.693-30.525 30.525-30.525 40.44 1.535 40.429 59.522 0 61.051-16.831-.001-30.525-13.695-30.525-30.526zm30.526 113.576c-16.832 0-30.525-13.694-30.525-30.525 1.535-40.44 59.522-40.429 61.051 0-.001 16.831-13.694 30.525-30.526 30.525z"/></g></svg>