<svg id="Capa_1" enable-background="new 0 0 512 512" height="512" viewBox="0 0 512 512" width="512" xmlns="http://www.w3.org/2000/svg"><g id="_x33_9-38"><path d="m256 511.292c-143.552 0-256-112.449-256-256 8.713-339.486 503.334-339.406 512 .004 0 143.547-112.448 255.996-256 255.996zm0-490c-131.215 0-234 102.785-234 234 7.965 310.312 460.078 310.238 468-.003 0-131.212-102.785-233.997-234-233.997z" fill="#3cc"/><path d="m172.949 349.343c-28.963 0-52.525-23.563-52.525-52.525 0-6.075 4.925-11 11-11s11 4.925 11 11c0 16.832 13.693 30.525 30.525 30.525 40.447-1.544 40.427-59.519 0-61.051-14.581-.543-14.567-21.464.001-22 16.832 0 30.525-13.694 30.525-30.525 0-16.832-13.693-30.525-30.525-30.525s-30.525 13.694-30.525 30.525c0 6.075-4.925 11-11 11s-11-4.925-11-11c0-28.962 23.562-52.525 52.525-52.525 50.041.092 71.285 63.948 32.131 94.051 39.161 30.108 17.894 93.97-32.132 94.05z"/><path d="m391.694 220.591c-.045-3.393-.087-6.559-.119-9.421-.008-.684-.086-1.35-.212-1.998-7.741-66.065-102.769-62.194-104.838 4.596-.399 42.56 49.667 67.748 83.451 42.419-.015 22.887-.555 46.874-2.794 52.51-10.318 24.716-45.952 24.706-56.263 0-2.366-5.596-8.822-8.214-14.416-5.846-5.595 2.366-8.213 8.821-5.846 14.416 17.748 42.517 79.049 42.499 96.786 0 4.509-10.657 4.972-42.199 4.251-96.676zm-52.643 23.701c-16.832 0-30.525-13.694-30.525-30.525 1.535-40.44 59.522-40.429 61.051 0-.001 16.831-13.694 30.525-30.526 30.525z"/></g></svg>