<svg id="Capa_1" enable-background="new 0 0 512 512" height="512" viewBox="0 0 512 512" width="512" xmlns="http://www.w3.org/2000/svg"><g id="_x34_3-42"><path d="m256 511.292c-143.552 0-256-112.449-256-256 8.713-339.486 503.334-339.406 512 .004 0 143.547-112.448 255.996-256 255.996zm0-490c-131.215 0-234 102.785-234 234 7.965 310.312 460.078 310.238 468-.003 0-131.212-102.785-233.997-234-233.997z" fill="#3cc"/><path d="m371.182 255.292c39.147-30.08 17.911-93.978-32.132-94.051-28.962 0-52.525 23.563-52.525 52.525 0 6.075 4.925 11 11 11s11-4.925 11-11c1.523-40.417 59.515-40.45 61.051 0 0 16.831-13.693 30.525-30.525 30.525-6.075 0-11 4.925-11 11s4.925 11 11 11c40.43 1.523 40.437 59.524 0 61.051-16.832 0-30.525-13.694-30.525-30.525 0-6.075-4.925-11-11-11s-11 4.925-11 11c0 28.962 23.562 52.525 52.525 52.525 50.043-.093 71.283-63.946 32.131-94.05z"/><path d="m214.475 161.241c-6.075 0-11 4.925-11 11v72.051h-61.051v-72.051c-.541-14.579-21.464-14.568-22 0v83.051c0 6.075 4.925 11 11 11h72.051v72.051c.541 14.579 21.464 14.568 22 0v-166.102c0-6.075-4.925-11-11-11z"/></g></svg>