<svg id="Capa_1" enable-background="new 0 0 512 512" height="512" viewBox="0 0 512 512" width="512" xmlns="http://www.w3.org/2000/svg"><g id="_x36_-5"><path d="m256 511.292c-143.551 0-256-112.449-256-256 8.714-339.486 503.333-339.406 512 .004 0 143.547-112.449 255.996-256 255.996zm0-490c-131.215 0-234 102.785-234 234 7.965 310.312 460.078 310.238 468-.003 0-131.212-102.785-233.997-234-233.997z" fill="#3cc"/><path d="m256.418 244.292c-11.554 0-22.243 3.759-30.925 10.105.007-22.787.536-46.871 2.793-52.509 10.323-24.718 45.949-24.705 56.263 0 2.367 5.595 8.821 8.212 14.416 5.845s8.212-8.821 5.846-14.416c-8.242-19.486-27.237-32.077-48.393-32.077s-40.151 12.591-48.393 32.077c-4.502 10.645-4.968 41.803-4.252 95.576.046 3.424.088 6.623.121 9.521.004.379.028.754.07 1.123 5.827 67.578 102.586 65.236 104.981-2.722-.002-28.96-23.565-52.523-52.527-52.523zm0 83.051c-16.832 0-30.525-13.694-30.525-30.525 1.535-40.44 59.522-40.429 61.051 0-.001 16.831-13.695 30.525-30.526 30.525z"/></g></svg>