<svg id="Capa_1" enable-background="new 0 0 512 512" height="512" viewBox="0 0 512 512" width="512" xmlns="http://www.w3.org/2000/svg"><g id="_x37_-8"><path d="m256 511.292c-143.551 0-256-112.449-256-256 8.714-339.486 503.334-339.406 512 .004 0 143.547-112.448 255.996-256 255.996zm0-490c-131.215 0-234 102.785-234 234 7.965 310.312 460.078 310.238 468-.003 0-131.212-102.785-233.997-234-233.997z" fill="#3cc"/><path d="m256.008 349.346c-.883 0-1.78-.107-2.676-.331-5.893-1.474-9.477-7.446-8.003-13.34l38.108-152.434h-68.962c-14.579-.541-14.568-21.464 0-22h83.051c3.388 0 6.586 1.561 8.67 4.23 2.085 2.67 2.823 6.151 2.002 9.438l-41.526 166.102c-1.25 4.998-5.735 8.334-10.664 8.335z"/></g></svg>