<svg id="Capa_1" enable-background="new 0 0 512 512" height="512" viewBox="0 0 512 512" width="512" xmlns="http://www.w3.org/2000/svg"><g id="_x39_-8_1_"><path d="m256 511.292c-143.552 0-256-112.449-256-256 8.713-339.486 503.334-339.406 512 .004 0 143.547-112.448 255.996-256 255.996zm0-490c-131.215 0-234 102.785-234 234 7.965 310.312 460.078 310.238 468-.003 0-131.212-102.785-233.997-234-233.997z" fill="#3cc"/><path d="m308.646 221.701c-.046-3.428-.089-6.631-.121-9.532-.004-.371-.027-.738-.067-1.1 0-.002 0-.004 0-.006 0-.004 0-.009-.001-.013-5.815-67.573-102.584-65.253-104.981 2.716-.399 42.559 49.665 67.748 83.45 42.42-.007 22.786-.536 46.872-2.793 52.51-10.318 24.715-45.951 24.705-56.262 0-2.366-5.596-8.823-8.213-14.416-5.846-5.595 2.366-8.213 8.821-5.846 14.416 17.747 42.517 79.051 42.499 96.785 0 4.501-10.643 4.966-41.798 4.252-95.565zm-52.646 22.591c-16.832 0-30.525-13.694-30.525-30.525 1.534-40.441 59.523-40.429 61.051 0-.001 16.831-13.694 30.525-30.526 30.525z"/></g></svg>